<svg width="64" height="64" viewBox="0 0 64 64" fill="none" xmlns="http://www.w3.org/2000/svg">
<path d="M55.8 64H8.3C3.7 64 0 60.3 0 55.8V8.3C0 3.7 3.7 0 8.3 0H55.8C60.3 0 64 3.7 64 8.3V55.8C64 60.3 60.3 64 55.8 64Z" fill="#327FEB"/>
<path d="M43.2143 24.3575C43.9801 23.496 44.3629 22.4431 44.3629 21.2945C44.3629 18.8058 42.3528 16.7 39.7684 16.7H20.9118C19.8589 16.7 18.9974 17.0828 18.3274 17.7529C17.6574 18.4229 17.2745 19.2844 17.2745 20.3373C17.2745 22.3474 18.9017 23.9746 20.9118 23.9746H24.262C27.4207 23.9746 29.0479 27.7076 26.9421 30.1006L17.8488 40.3425C17.0831 41.204 16.7002 42.2569 16.7002 43.4055C16.7002 45.8942 18.7103 48 21.2947 48H38.8112C38.0455 47.0428 37.5669 45.7027 37.5669 44.3627C37.5669 43.0226 38.0455 41.6826 38.8112 40.7254H36.8969C33.7381 40.7254 32.0152 36.9923 34.121 34.5994L43.2143 24.3575Z" fill="white"/>
<path d="M44.3629 48C46.3717 48 48.0002 46.3715 48.0002 44.3627C48.0002 42.3539 46.3717 40.7254 44.3629 40.7254C42.3541 40.7254 40.7256 42.3539 40.7256 44.3627C40.7256 46.3715 42.3541 48 44.3629 48Z" fill="white"/>
</svg>
